<svg xmlns="http://www.w3.org/2000/svg" height="24px" viewBox="0 -960 960 960" width="24px" fill="#5f6368"><path d="M480-325q102-75 150-149.5T678-616q0-84.82-56.33-139.41Q565.33-810 480.17-810 395-810 339-755.41 283-700.82 283-616q0 66 47.5 141.5T480-325Zm0 116Q329-315 260-416.5T191-616q0-126 81-206t208-80q127 0 208 80t81 206q0 98-69 199.5T480-209Zm-1-310q38 0 66.5-27.67Q574-574.35 574-613q0-36.54-28.5-65.27Q517-707 479-707q-37 0-65 28.62t-28 65.5q0 38.88 28 66.38 28 27.5 65 27.5ZM179-59v-90h603v90H179Zm301-554Z"/></svg>